<?xml version="1.0" standalone="no"?>
<!DOCTYPE svg PUBLIC "-//W3C//DTD SVG 20010904//EN"
 "http://www.w3.org/TR/2001/REC-SVG-20010904/DTD/svg10.dtd">
<svg version="1.0" xmlns="http://www.w3.org/2000/svg"
 width="192.000000pt" height="192.000000pt" viewBox="0 0 192.000000 192.000000"
 preserveAspectRatio="xMidYMid meet">
<metadata>
Created by potrace 1.11, written by Peter Selinger 2001-2013
</metadata>
<g transform="translate(0.000000,192.000000) scale(0.100000,-0.100000)"
fill="#000000" stroke="none">
<path d="M50 1232 c0 -5 12 -19 26 -33 25 -23 31 -24 210 -27 152 -3 184 -6
184 -18 0 -12 -27 -14 -160 -14 l-160 0 11 -24 c18 -40 45 -46 214 -49 134 -2
160 -4 160 -17 0 -12 -25 -16 -145 -20 l-145 -5 29 -27 c29 -28 30 -28 171
-28 107 0 145 -3 154 -13 6 -8 8 -17 4 -20 -3 -4 -60 -7 -125 -7 -65 0 -118
-4 -118 -8 0 -5 6 -17 14 -28 12 -16 30 -20 127 -24 l112 -5 13 -46 c14 -49
54 -95 92 -110 13 -5 55 -9 93 -9 l70 0 -3 208 -3 209 -29 41 c-16 23 -46 50
-70 62 -40 19 -61 20 -384 20 -188 0 -342 -4 -342 -8z"/>
<path d="M1125 1217 c-21 -12 -53 -42 -70 -65 l-30 -44 -2 -204 -2 -204 70 0
c113 0 173 38 187 121 l8 44 111 3 c108 3 113 4 133 30 l22 27 -124 5 c-100 4
-123 8 -123 20 0 13 25 15 150 18 137 2 151 4 172 24 13 12 23 25 23 29 0 5
-62 10 -137 11 -122 3 -138 5 -141 21 -3 16 10 17 161 17 151 0 166 2 191 21
14 11 26 27 26 35 0 11 -27 14 -155 14 -131 0 -155 2 -155 15 0 13 26 15 173
15 182 0 207 5 235 48 l14 22 -348 0 c-343 0 -350 -1 -389 -23z"/>
</g>
</svg>
